<svg width="120" height="24" viewBox="0 0 120 24" fill="none" xmlns="http://www.w3.org/2000/svg">
<g clip-path="url(#clip0_19179_9076)">
<path fill-rule="evenodd" clip-rule="evenodd" d="M22.7502 19.8962C22.5049 20.3593 21.9933 20.9215 21.2844 21.3713C20.2749 22.0122 18.9092 22.5136 17.5072 22.5136C17.3253 22.5136 17.1449 22.5075 16.9665 22.4957C16.9186 22.4925 16.8707 22.4891 16.8229 22.4855C15.3948 22.3756 14.2852 22.0332 12.7616 21.5553C10.712 20.9179 9.57122 20.6123 8.35222 20.6123C7.54824 20.6123 6.97733 20.7687 6.61444 20.947V20.8162C6.83422 20.4037 7.28195 19.9473 7.87842 19.5338L7.87995 19.5328C7.87995 19.5328 10.3486 17.7439 10.6435 17.5262C10.939 17.3079 11.2773 17.06 11.4306 16.9384C11.5835 16.8168 11.7608 16.6368 11.8268 16.5755C12.8694 15.611 13.4536 13.6862 13.4536 9.7532C13.4536 5.75989 12.8321 2.93651 10.8899 1.86829C10.5014 1.66435 9.9842 1.54475 9.54362 1.49415C9.50631 1.49058 9.46746 1.48546 9.43015 1.4824C9.33191 1.47348 9.23337 1.46836 9.13473 1.46706C8.96095 1.46706 8.79433 1.49262 8.63742 1.51971C8.32717 1.57082 7.73122 1.74102 7.36884 2.04615C6.17795 2.93651 5.50431 4.84398 5.50431 9.06627C5.50431 13.034 6.15189 15.8574 8.06804 16.9512C8.48204 17.1546 8.97424 17.3074 9.41431 17.358V17.562C3.87386 17.3325 0.455551 13.9755 0.455551 9.3714C0.455551 4.33695 4.74991 1.66691 8.63282 1.28358L8.63793 1.28306C8.77746 1.27131 8.92057 1.26109 9.06624 1.25751C9.22111 1.25393 9.37955 1.25751 9.54004 1.25751H9.54362C15.0846 1.46144 18.529 4.81842 18.529 9.42251C18.529 12.8965 16.5039 15.2318 13.978 16.4871H13.9796L9.56764 18.668L9.57122 18.667C10.2888 18.4068 11.0785 18.2428 11.8794 18.2428C12.0619 18.2428 12.2423 18.2489 12.4212 18.2606C12.4825 18.2647 12.5428 18.2688 12.6026 18.2739C14.0123 18.3864 15.1152 18.7273 16.6261 19.2011C18.6746 19.8379 19.8154 20.1441 21.0349 20.1441C21.8389 20.1441 22.3316 19.9652 22.695 19.7868L22.7507 19.8967L22.7502 19.8962ZM114.645 5.81764V5.60246C117.35 5.55391 118.296 6.52247 118.661 7.60858C118.795 8.0052 118.8 9.12146 117.62 9.2426C116.927 9.31313 116.297 8.8102 116.221 8.14882C116.054 6.7034 115.876 6.39724 115.64 6.1008C115.404 5.80435 114.645 5.81764 114.645 5.81764ZM119.544 13.2676C119.213 14.6691 117.762 17.3713 114.247 17.3713C110.502 17.3713 108.643 14.644 108.643 11.7414C108.643 8.37167 110.9 6.0732 113.996 5.63978V5.8478C113.217 6.21069 112.642 7.41333 112.642 10.1401C112.642 13.1173 114.094 14.5438 116.31 14.5438C117.889 14.5438 118.806 13.9683 119.392 13.1674L119.544 13.2676ZM89.1998 10.7785C89.1998 12.7534 88.5154 14.526 86.9018 15.7352H86.9034L86.8942 15.7414C86.4112 16.1022 85.8443 16.412 85.1886 16.6624C84.6182 16.8878 84.0641 17.033 83.5479 17.1224L83.4942 17.1331V17.1321C83.2372 17.1745 82.9903 17.2037 82.7557 17.2221C81.4028 17.3284 80.4634 17.083 80.4634 17.083V19.4955C80.4634 20.7968 80.998 21.2721 82.1188 21.4474V21.6222L76.4644 23.2695V9.00186C76.4644 8.10078 76.2354 7.80075 75.7765 7.47518L75.2924 7.17515V7.04993L80.3867 5.5488L80.4634 5.62393V13.8308C80.4634 14.6062 80.5651 15.4817 81.0491 16.1324C81.2203 16.3746 81.4386 16.5607 81.6793 16.7043C81.8435 16.8028 82.0191 16.8811 82.2022 16.9374C82.4715 17.0103 82.7542 17.018 83.0271 16.9598C83.3 16.9017 83.5551 16.7794 83.7713 16.6031C83.9921 16.4033 84.4388 15.8487 84.727 14.4892C84.884 13.7409 84.9714 12.871 84.9714 11.929C84.9714 8.72689 84.0289 7.17566 82.0938 7.17566C81.6859 7.17566 81.3394 7.25029 81.0343 7.40055V7.32542C81.5433 6.59964 83.0613 5.57384 84.6402 5.57384C88.0022 5.57384 89.1993 7.90093 89.1993 10.778L89.1998 10.7785ZM107.587 15.6698C107.81 15.6641 108.029 15.6039 108.223 15.4945V15.5947C107.893 16.4452 106.925 17.3458 105.32 17.3458C104.356 17.3458 103.653 17.035 103.219 16.4319C102.873 15.9514 102.697 15.287 102.697 14.4437V11.9418C102.697 11.6326 102.682 11.3438 102.66 11.0652L102.111 11.2661C101.678 11.4414 101.117 11.6663 100.863 12.0169C100.608 12.3921 100.455 12.9676 100.455 13.5431C100.455 15.0943 100.812 15.5947 101.576 15.5947C101.711 15.5947 101.863 15.5712 101.999 15.5359C102.146 15.4981 102.274 15.4465 102.34 15.3943V15.4945C102.209 15.8804 101.719 16.5336 100.954 16.9522C100.489 17.2096 99.9673 17.345 99.4363 17.3458C97.5263 17.3458 96.5332 16.0951 96.5332 14.5438C96.5332 13.9837 96.661 13.5037 96.845 13.1219C97.3188 12.3471 98.3001 12.0057 98.6865 11.8973L98.8501 11.8564L98.8526 11.8554C99.9009 11.5906 101.368 11.241 102.114 11.0581V11.0601L102.649 10.9242C102.413 8.41204 101.27 7.18793 99.5528 7.18793C99.145 7.18793 98.687 7.26255 98.3814 7.41282V7.33769C98.8904 6.61191 100.521 5.58611 102.1 5.58611C102.226 5.58611 102.348 5.59122 102.468 5.59735C105.55 5.76295 106.67 8.02155 106.67 10.7902V14.6185C106.67 15.3698 106.976 15.6693 107.587 15.6693V15.6698ZM60.9558 16.9583V17.1331H47.7906V16.9583C48.5905 16.8152 48.9288 16.4896 48.9595 15.4235C48.961 15.3693 48.9626 15.3146 48.9626 15.2568V9.4772C48.9626 8.17591 48.4279 7.62544 47.256 7.62544C46.8486 7.62544 46.3901 7.72562 46.0589 7.85033V7.77571C46.7724 6.64973 48.3257 5.57384 49.9812 5.57384C52.2229 5.57384 52.961 6.97531 52.961 8.92673V15.196C52.961 15.3289 52.9661 15.4485 52.9722 15.5625H52.9753C52.9753 15.6064 52.9778 15.6494 52.9819 15.6923L52.983 15.7076C53.0566 16.3992 53.6525 16.9389 54.3762 16.9389C55.0693 16.9389 55.6438 16.4431 55.7562 15.794C55.7639 15.7214 55.77 15.6443 55.7746 15.5625L55.7762 15.54C55.7813 15.4327 55.7854 15.3202 55.7854 15.196V8.92673C55.7854 8.05069 55.5308 7.72562 55.0974 7.4256C54.9957 7.32542 54.7662 7.17515 54.6395 7.12506V7.00035L59.7076 5.52375L59.7588 5.59889V15.2568C59.7588 15.3146 59.7603 15.3693 59.7618 15.4235C59.7925 16.4896 60.1314 16.8152 60.9558 16.9583ZM46.6958 16.9583V17.1331H27.962V8.92673C27.962 8.05069 27.7075 7.72562 27.2746 7.4256C27.138 7.30259 26.9834 7.20124 26.8161 7.12506V7.00035L31.8843 5.52375L31.9354 5.59889V15.5625H31.9364C31.9364 15.8114 32.0044 16.044 32.1214 16.2448C32.2456 16.4568 32.4233 16.6325 32.6367 16.7543C32.8501 16.8761 33.0917 16.9398 33.3374 16.9389C33.6506 16.9407 33.9553 16.8371 34.2024 16.6447C34.4496 16.4523 34.6249 16.1824 34.7 15.8784C34.7251 15.7749 34.738 15.6689 34.7383 15.5625H34.7414L34.7419 15.196V8.92673C34.7419 8.05069 34.4874 7.72562 34.0545 7.4256C33.9179 7.30259 33.7633 7.20124 33.596 7.12506V7.00035L38.6642 5.52375L38.7153 5.59889V15.6979C38.7276 15.8104 38.7526 15.9198 38.7899 16.023C38.889 16.2926 39.0688 16.5252 39.3047 16.6891C39.5406 16.8529 39.8213 16.9402 40.1086 16.9389C40.8829 16.9389 41.51 16.3225 41.51 15.5625H41.5146C41.5208 15.4485 41.5249 15.3289 41.5249 15.196V8.92673C41.5249 8.05069 41.2703 7.72562 40.8374 7.4256C40.7008 7.30259 40.5462 7.20124 40.379 7.12506V7.00035L45.4476 5.52375L45.4988 5.59889V15.2568C45.4988 15.3146 45.5003 15.3693 45.5018 15.4235C45.5325 16.4896 45.8714 16.8152 46.6958 16.9583ZM69.8338 2.27104C69.8338 1.09549 70.8018 0.269531 71.9988 0.269531C73.1959 0.269531 74.1639 1.09549 74.1639 2.27104C74.1639 3.44711 73.1959 4.27255 71.9988 4.27255C70.8018 4.27255 69.8338 3.44711 69.8338 2.27104ZM75.3865 16.9583V17.1331H62.0511V16.9583C62.851 16.8152 63.1888 16.4896 63.2195 15.4235C63.221 15.3693 63.2226 15.3146 63.2226 15.2568V9.4772C63.2226 8.17591 62.6874 7.62544 61.516 7.62544C61.1086 7.62544 60.6501 7.72562 60.3189 7.85033V7.77571C61.0319 6.64973 62.5857 5.57384 64.2412 5.57384C66.4824 5.57384 67.221 6.97531 67.221 8.92673V15.196C67.221 15.309 67.2246 15.4127 67.2292 15.5124L67.2317 15.5625C67.2378 15.6627 67.2455 15.7567 67.2562 15.8436C67.3881 16.4692 67.9519 16.9389 68.6276 16.9389C69.3298 16.9389 69.9094 16.4309 70.0111 15.769C70.0186 15.6966 70.0242 15.624 70.028 15.5512V15.5625H70.0382C70.0449 15.4485 70.0484 15.3289 70.0484 15.196V8.92673C70.0484 8.05069 69.7944 7.72562 69.361 7.4256C69.2593 7.32542 69.0303 7.17515 68.903 7.12506V7.00035L73.9712 5.52375L74.0223 5.59889V15.2568C74.0223 15.3146 74.0239 15.3693 74.0254 15.4235C74.1036 16.5152 74.5564 16.7994 75.3865 16.9583ZM26.2564 15.2068C26.7149 15.2068 27.0972 15.1066 27.4284 14.9318V15.0314C26.8677 16.1574 25.8746 17.3084 23.9135 17.3084C21.8502 17.3084 20.691 16.2075 20.691 13.9556V8.92622C20.691 8.05069 20.4482 7.72562 20.0153 7.4256C19.913 7.32542 19.6841 7.17515 19.5568 7.12506V7.00035L24.6255 5.52375L24.6766 5.59889L24.6776 13.2553C24.6776 14.6558 25.0845 15.2068 26.2564 15.2068ZM96.226 16.9583V17.1331H89.5525V16.9583C90.5006 16.7866 90.8609 16.4922 90.8752 15.1398V8.92673C90.8752 8.05069 90.6207 7.72562 90.1878 7.4256C90.0512 7.30259 89.8966 7.20124 89.7293 7.12506V7.00035L94.7975 5.52375L94.8486 5.59889V15.0565H94.8501C94.8501 16.458 95.3086 16.783 96.225 16.9583H96.226ZM90.6733 2.27104C90.6733 1.09549 91.6413 0.269531 92.8384 0.269531C94.0354 0.269531 95.0034 1.09549 95.0034 2.27104C95.0034 3.44711 94.0354 4.27255 92.8384 4.27255C91.6413 4.27255 90.6733 3.44711 90.6733 2.27104ZM36.6995 4.27255C37.8965 4.27255 38.8645 3.44711 38.8645 2.27104C38.8645 1.09549 37.8965 0.269531 36.6995 0.269531C35.5024 0.269531 34.5344 1.09549 34.5344 2.27104C34.5344 3.44711 35.5024 4.27255 36.6995 4.27255Z" fill="white"/>
</g>
<defs>
<clipPath id="clip0_19179_9076">
<rect width="119.089" height="23" fill="white" transform="translate(0.455551 0.269531)"/>
</clipPath>
</defs>
</svg>
